<svg xmlns="http://www.w3.org/2000/svg" xmlns:xlink="http://www.w3.org/1999/xlink" version="1.1" baseProfile="full" viewBox="0 0 200 200" width="200" height="200">
<g fill="black">
<path d="M 160.6 111.5 L 162.4 114.7 L 158.17102365493776 114.99165353775024 L 157.4 116.1 L 155.7 118.5 L 153.9 120.8 L 152.1 123.2 L 150.2 125.6 L 148.2 128.0 L 146.1 130.4 L 143.9 132.8 L 143.75384616851807 133.0 L 154.8 133.0 L 164.8 123.0 L 176.8 133.0 L 176.8 137.0 L 134.2 137.0 L 134.2 157.0 L 162.0 157.0 L 172.0 147.0 L 184.0 157.0 L 184.0 161.0 L 134.2 161.0 L 134.2 185.0 L 122.2 191.0 L 122.2 161.0 L 74.5 161.0 L 74.5 157.0 L 122.2 157.0 L 122.2 137.0 L 80.3 137.0 L 80.3 133.0 L 141.05 133.0 L 141.7 131.5 L 142.5 128.4 L 143.5 125.4 L 144.4 122.5 L 145.4 119.6 L 146.3 116.8 L 147.3 114.1 L 149.1 108.7 L 149.62746410369874 107.0516746520996 L 149.5 107.0 L 149.8673469543457 106.3020408630371 L 149.9 106.2 L 149.91669921875 106.20827159881591 L 150.5 105.1 Z M 37.3 186.9 L 33.2 184.8 L 31.7 180.5 L 32.3 173.5 L 32.4 167.1 L 31.9 161.3 L 30.9 156.1 L 29.5 151.4 L 28.086545372009276 148.50241804122925 L 27.7 148.4 L 27.856564044952393 148.03095626831055 L 27.5 147.3 L 25.0 143.5 L 21.9 140.1 L 18.2 137.0 L 13.7 134.1 L 14.2 132.4 L 19.8 133.6 L 25.0 135.8 L 29.6 138.9 L 31.202240180969238 140.46316118240355 L 33.5 135.5 L 36.6 129.1 L 40.3 121.5 L 44.7 112.8 L 49.7 102.9 L 55.4 91.9 L 61.8 79.8 L 69.1 66.6 L 70.7 67.3 L 65.3 81.4 L 60.3 94.1 L 55.7 105.6 L 51.6 115.9 L 48.1 124.9 L 45.2 132.7 L 42.8 139.3 L 41.0 144.7 L 39.9 148.8 L 39.4 151.5 L 38.84196138381958 151.35214366912842 L 39.7 153.1 L 41.7 159.3 L 43.1 166.1 L 43.7 173.5 L 43.7 181.4 L 41.6 185.5 Z M 104.6 124.4 L 104.2 122.3 L 103.2 117.9 L 102.5 115.7 L 101.7 113.4 L 100.8 111.0 L 99.9 108.5 L 98.4 106.3 L 99.8 105.1 L 101.7 107.0 L 103.9 108.7 L 106.0 110.5 L 107.9 112.4 L 109.6 114.4 L 111.3 116.5 L 112.8 118.6 L 114.2 120.9 L 116.6 125.5 L 115.9 130.1 L 112.3 132.9 L 107.7 132.2 L 104.9 128.5 L 104.8 126.5 Z M 68.7 101.0 L 122.2 101.0 L 122.2 84.0 L 82.5 84.0 L 82.5 80.0 L 122.2 80.0 L 122.2 61.0 L 134.2 63.0 L 137.2 65.0 L 134.2 66.8 L 134.2 80.0 L 155.71818180084227 80.0 L 163.9 71.0 L 173.9 80.0 L 173.9 84.0 L 134.2 84.0 L 134.2 101.0 L 166.4 101.0 L 176.4 91.0 L 188.4 101.0 L 188.4 105.0 L 68.7 105.0 Z M 32.2 83.4 L 30.8 81.4 L 29.1 79.4 L 27.1 77.3 L 24.8 75.2 L 22.1 73.2 L 19.1 71.1 L 15.8 68.9 L 12.1 67.1 L 12.7 65.4 L 16.8 66.4 L 20.8 67.2 L 24.6 68.2 L 28.1 69.5 L 31.4 70.9 L 34.5 72.6 L 37.3 74.5 L 40.0 76.5 L 42.3 78.8 L 44.4 81.4 L 44.9 85.9 L 42.1 89.6 L 37.6 90.1 L 34.0 87.3 L 33.2 85.4 Z M 71.4 65.4 L 71.4 16.0 L 83.4 22.0 L 171.5 22.0 L 177.5 17.0 L 188.5 26.0 L 183.5 30.0 L 183.5 63.4 L 171.5 69.4 L 171.5 59.4 L 83.4 59.4 Z M 83.4 26.0 L 83.4 55.4 L 104.8 55.4 L 104.8 26.0 Z M 116.8 26.0 L 116.8 55.4 L 138.1 55.4 L 138.1 26.0 Z M 150.1 26.0 L 150.1 55.4 L 171.5 55.4 L 171.5 26.0 Z M 46.1 37.5 L 44.7 35.4 L 43.0 33.4 L 41.1 31.3 L 38.8 29.2 L 36.3 27.1 L 33.5 25.1 L 30.5 22.9 L 27.1 21.1 L 27.7 19.4 L 31.5 20.4 L 35.3 21.2 L 38.9 22.3 L 42.3 23.5 L 45.5 25.0 L 48.5 26.7 L 51.2 28.5 L 53.8 30.5 L 56.2 32.8 L 58.4 35.2 L 59.1 39.8 L 56.5 43.5 L 51.9 44.2 L 48.2 41.6 L 47.3 39.5 Z " />
</g>
</svg>
