<?xml version="1.0" encoding="UTF-8" standalone="no"?>
        <svg 
    viewBox="2.4169921875 -85.21728515625 446.7041015625 57.38525390625"
    width="444.287109375"
    height="142.6025390625"
   xmlns="http://www.w3.org/2000/svg"
   xmlns:svg="http://www.w3.org/2000/svg">
   <path d="M63.72-33.76L75.29-33.76L75.29-43.21L63.72-43.21L63.72-33.76ZM94.78-43.21L94.78-33.76L106.79-33.76L106.79-43.21L94.78-43.21ZM63.72-47.39L75.29-47.39L75.29-56.40L63.72-56.40L63.72-47.39ZM94.78-56.40L94.78-47.39L106.79-47.39L106.79-56.40L94.78-56.40ZM40.21-82.32L38.82-86.43L61.67-87.74L61.67-97.34L36.91-97.34L36.91-66.14Q36.91-56.84 36.07-46.33Q35.23-35.82 32.08-25.16Q28.93-14.50 22.16-4.65Q15.38 5.20 3.59 13.04L3.59 13.04L2.42 12.01Q8.79 0.44 11.61-12.78Q14.43-26.00 15.16-39.66Q15.89-53.32 15.89-66.14L15.89-66.14L15.89-109.64L40.06-101.51L64.67-101.51L64.67-128.69L91.77-126.78Q91.55-125.17 90.56-124.07Q89.58-122.97 86.43-122.39L86.43-122.39L86.43-114.33L103.34-114.33L113.67-127.08Q113.67-127.08 115.61-125.65Q117.55-124.22 120.56-122.02Q123.56-119.82 126.86-117.30Q130.15-114.77 132.93-112.50L132.93-112.50Q132.28-110.08 128.54-110.08L128.54-110.08L127.08-110.08L142.68-95.43Q141.06-93.82 136.82-93.60L136.82-93.60L131.10-90.31L131.84-81.74Q136.23-80.42 137.73-78.77Q139.23-77.12 139.23-75L139.23-75Q139.23-72.29 137.51-70.61Q135.79-68.92 131.14-68.01Q126.49-67.09 117.77-66.72L117.77-66.72L131.40-56.54Q130.30-54.86 126.78-53.98L126.78-53.98L126.78-31.20Q126.78-30.76 125.57-30.03Q124.37-29.30 122.53-28.64L122.53-28.64L137.70-17.58Q137.11-16.85 135.90-16.15Q134.69-15.45 132.93-15.16L132.93-15.16L132.93 2.12L138.13-7.62Q138.13-7.62 140.22-5.31Q142.31-3.00 144.95 0.22Q147.58 3.44 149.41 6.15L149.41 6.15Q148.97 8.57 145.68 8.57L145.68 8.57L20.21 8.57L19.04 4.32L36.33 4.32L36.33-29.22L43.80-26.37L43.80-68.55L64.67-60.57L105.47-60.57L111.18-66.58L102.17-66.58L83.42-66.58Q74.49-66.58 69.80-67.79Q65.11-68.99 63.39-72.07Q61.67-75.15 61.67-80.71L61.67-80.71L61.67-83.72L40.21-82.32ZM106.79-25.78L106.79-29.52L62.11-29.52Q59.99-28.20 55.74-26.77Q51.49-25.34 47.09-25.20L47.09-25.20L57.57-21.31L112.06-21.31L117.63-26.88Q115.80-26.37 113.93-26.07Q112.06-25.78 110.38-25.78L110.38-25.78L106.79-25.78ZM62.84 4.32L62.84-17.07L55.52-17.07L55.52 4.32L62.84 4.32ZM87.89-17.07L80.57-17.07L80.57 4.32L87.89 4.32L87.89-17.07ZM113.38-17.07L105.76-17.07L105.76 4.32L113.38 4.32L113.38-17.07ZM86.43-110.08L86.43-101.51L116.67-101.51L125.24-110.08L86.43-110.08ZM117.11-97.34L117.11-97.34L99.02-97.34Q101.44-95.65 104.70-93.38Q107.96-91.11 110.52-89.14L110.52-89.14Q110.45-87.89 109.35-87.19Q108.25-86.50 106.79-86.43L106.79-86.43L81.59-84.89L81.59-82.32Q81.59-81.01 82.43-80.49Q83.28-79.98 87.01-79.98L87.01-79.98L104.37-79.98Q108.25-79.98 112.06-79.98Q115.87-79.98 117.92-80.13L117.92-80.13Q121.22-80.35 122.97-81.45L122.97-81.45Q124.15-82.32 125.83-84.30Q127.51-86.28 129.27-89.43L129.27-89.43Q125.46-87.38 121.29-85.47Q117.11-83.57 113.53-82.32L113.53-82.32L112.35-83.28Q113.60-86.06 114.88-89.98Q116.16-93.90 117.11-97.34ZM93.02-97.34L81.59-97.34L81.59-89.14L87.30-89.43L93.02-97.34ZM214.23-2.27L214.23-47.68L240.75-45.63Q240.53-44.02 239.43-42.92Q238.33-41.82 235.18-41.38L235.18-41.38L235.18-2.27L259.50-2.27L259.50-39.92L285.13-37.79Q284.91-36.47 283.92-35.41Q282.93-34.35 280.22-33.91L280.22-33.91L280.22 7.03Q280.22 7.62 277.59 8.68Q274.95 9.74 271.00 10.58Q267.04 11.43 263.09 11.43L263.09 11.43L259.50 11.43L259.50 1.98L190.65 1.98L190.65 9.59Q190.65 10.18 188.01 11.24Q185.38 12.30 181.46 13.11Q177.54 13.92 173.58 13.92L173.58 13.92L169.92 13.92L169.92-38.67L195.63-36.62Q195.41-35.23 194.38-34.20Q193.36-33.18 190.65-32.67L190.65-32.67L190.65-2.27L214.23-2.27ZM201.93-54.13L231.74-54.13L231.74-85.47L201.93-85.47L201.93-54.13ZM180.62-54.13L180.62-120.92L205.96-111.91Q215.99-114.33 225.88-117.15Q235.77-119.97 244.30-122.86Q252.83-125.76 258.91-128.39L258.91-128.39L277.66-109.64Q276.20-108.54 273.52-108.54Q270.85-108.54 266.97-110.08L266.97-110.08Q258.54-108.84 247.89-107.78Q237.23-106.71 225.44-106.05Q213.65-105.40 201.93-105.18L201.93-105.18L201.93-89.72L259.79-89.72L269.53-103.20Q269.53-103.20 271.33-101.70Q273.12-100.20 275.90-97.85Q278.69-95.51 281.69-92.87Q284.69-90.23 287.11-87.89L287.11-87.89Q286.45-85.47 282.93-85.47L282.93-85.47L253.05-85.47L253.05-54.13L268.51-54.13L278.39-67.82Q278.39-67.82 280.22-66.28Q282.06-64.75 284.88-62.37Q287.70-59.99 290.73-57.31Q293.77-54.64 296.26-52.37L296.26-52.37Q295.61-49.95 292.02-49.95L292.02-49.95L154.32-49.95L153.15-54.13L180.62-54.13ZM351.12-47.09L332.08-47.09L332.08-8.72L351.12-8.72L351.12-47.09ZM388.62-88.77L388.48-126.64L415.65-124.22Q415.21-120.70 410.08-119.82L410.08-119.82L409.79-88.77L418.36-88.77L429.13-99.61L446.70-84.01Q445.83-82.98 444.25-82.21Q442.68-81.45 440.11-81.01L440.11-81.01Q439.67-58.08 439.09-42.66Q438.50-27.25 437.33-17.65Q436.16-8.06 434.14-2.64Q432.13 2.78 428.98 5.86L428.98 5.86Q421.22 13.40 408.03 13.18L408.03 13.18Q408.03 8.13 407.56 4.69Q407.08 1.25 405.62-0.73L405.62-0.73Q402.61-5.27 394.34-7.62L394.34-7.62L394.34-9.30Q397.63-9.08 401.92-8.90Q406.20-8.72 408.47-8.72L408.47-8.72Q411.40-8.72 413.38-10.47L413.38-10.47Q415.65-12.60 416.97-20.80Q418.29-29.00 418.95-44.60Q419.60-60.21 419.97-84.59L419.97-84.59L409.64-84.59Q409.13-68.63 407.19-54.46Q405.25-40.28 400.31-27.91Q395.36-15.53 386.13-5.05Q376.90 5.42 361.82 13.92L361.82 13.92L360.28 12.01Q363.13 8.94 365.52 5.79Q367.90 2.64 370.02-0.73L370.02-0.73Q367.90 0.59 363.28 2.09Q358.67 3.59 354.57 3.59L354.57 3.59L351.12 3.59L351.12-4.47L332.08-4.47L332.08 4.32Q332.08 5.35 327.83 7.62Q323.58 9.89 315.89 9.89L315.89 9.89L312.30 9.89L312.30-59.40L334.06-51.27L349.66-51.27L358.81-61.23L377.42-46.95Q376.76-46.14 375.26-45.19Q373.75-44.24 371.41-43.80L371.41-43.80L371.41-2.86Q378.44-14.43 382.07-27.25Q385.69-40.06 387.01-54.35Q388.33-68.63 388.48-84.59L388.48-84.59L377.56-84.59L376.17-88.77L388.62-88.77ZM304.98-112.06L303.59-116.24L354.57-116.24L364.67-125.68L382.03-111.47Q380.42-109.35 376.17-108.76L376.17-108.76Q375.66-94.26 374.63-85.55Q373.61-76.83 371.52-72.11Q369.43-67.38 365.84-64.82L365.84-64.82Q362.33-62.40 358.01-61.19Q353.69-59.99 347.83-59.99L347.83-59.99Q347.83-64.53 347.39-67.90Q346.95-71.26 345.63-73.17L345.63-73.17Q344.24-75.22 342.22-76.72Q340.21-78.22 336.62-79.17L336.62-79.17L336.62-80.86Q338.96-80.64 342.44-80.53Q345.92-80.42 347.68-80.42L347.68-80.42Q350.32-80.42 351.64-81.45L351.64-81.45Q353.39-82.91 354.38-90.12Q355.37-97.34 355.96-112.06L355.96-112.06L342.48-112.06Q341.89-103.42 340.10-95.40Q338.31-87.38 334.24-80.16Q330.18-72.95 322.85-66.69Q315.53-60.42 303.88-55.37L303.88-55.37L302.42-57.13Q311.21-65.41 315.09-74.30Q318.97-83.20 320.00-92.69Q321.02-102.17 321.17-112.06L321.17-112.06L304.98-112.06Z"/>
    </svg>
        