<svg width="296" height="296" version="1.1" xmlns="http://www.w3.org/2000/svg" xmlns:xlink="http://www.w3.org/1999/xlink"><path d="M180.86 204.63L180.86 204.63L202.17 209.96Q204.54 210.26 206.61 210.26L206.61 210.26Q224.96 193.39 229.10 123.53L229.10 123.53Q229.10 121.46 229.40 119.68L229.40 119.68Q229.99 103.40 229.99 102.81L229.99 102.81L229.99 101.03Q229.40 96.59 226.74 95.71L226.74 95.71Q223.48 94.52 196.54 100.74L196.54 100.74Q195.66 101.03 194.77 101.03L194.77 101.03L193.88 102.81Q179.38 175.03 153.62 209.67L153.62 209.67Q139.71 228.61 121.06 239.27L121.06 239.27L115.74 241.34Q113.66 241.63 111.59 241.04L111.59 241.04L111.59 239.27Q153.62 202.56 174.05 123.83L174.05 123.83Q176.42 115.54 178.49 106.07L178.49 106.07Q175.23 106.07 160.43 110.21L160.43 110.21Q144.74 114.65 138.23 106.36L138.23 106.36Q137.94 105.77 137.34 105.18L137.34 105.18Q137.34 103.40 138.82 101.92L138.82 101.92Q155.70 101.63 180.26 96.00L180.26 96.00Q189.44 49.83 188.55 36.21L188.55 36.21Q187.96 29.11 180.86 19.34L180.86 19.34Q180.26 15.49 184.41 14.60L184.41 14.60Q185.30 14.31 186.48 14.31L186.48 14.31Q195.36 14.31 206.61 24.67L206.61 24.67Q208.98 27.03 210.46 28.81L210.46 28.81L210.46 31.77Q202.17 48.35 196.84 83.87L196.84 83.87Q196.25 88.90 195.66 91.27L195.66 91.27Q202.46 90.38 220.52 83.27L220.52 83.27Q236.21 77.06 245.98 82.39L245.98 82.39Q250.42 84.46 254.56 88.60Q258.70 92.75 253.67 99.85L253.67 99.85L250.42 105.47Q247.16 115.24 242.42 155.20L242.42 155.20Q236.50 203.45 224.96 222.10L224.96 222.10Q217.86 233.05 208.09 237.79L208.09 237.79Q206.90 238.38 204.54 238.38L204.54 238.38Q200.69 238.38 195.36 228.02L195.36 228.02Q193.58 224.76 192.99 223.58L192.99 223.58L183.22 209.96Q181.74 207.30 180.86 204.63ZM83.77 99.55L83.77 99.55L83.77 97.48L97.38 102.81Q98.86 103.11 100.05 103.11L100.05 103.11Q108.93 103.11 117.81 77.95L117.81 77.95Q126.10 53.97 123.73 42.13L123.73 42.13Q123.43 40.65 122.84 39.76L122.84 39.76Q114.55 36.51 83.77 46.27L83.77 46.27Q81.99 46.87 80.51 47.46L80.51 47.46Q89.39 51.90 90.87 54.56L90.87 54.56Q92.06 56.63 92.06 59.00L92.06 59.00Q89.10 62.85 76.37 83.87L76.37 83.87L73.70 88.01Q47.95 127.38 19.54 139.81L19.54 139.81L15.98 139.81Q65.71 90.97 70.74 61.96L70.74 61.96Q71.93 55.45 70.74 50.42L70.74 50.42L54.76 54.56Q47.06 55.45 40.55 49.83L40.55 49.83Q38.18 48.35 38.18 46.27L38.18 46.27L39.96 44.79Q84.36 40.65 124.32 24.67L124.32 24.67Q134.98 26.74 146.22 34.73L146.22 34.73Q148 36.51 142.97 42.72L142.97 42.72L142.08 44.20Q140.60 47.16 137.34 59.00L137.34 59.00Q129.94 89.49 129.65 90.38L129.65 90.38Q123.43 110.21 112.78 119.98L112.78 119.98Q107.15 124.71 102.42 124.71L102.42 124.71Q100.34 124.12 83.77 99.55ZM116.03 189.83L116.03 189.83Q121.36 193.39 122.25 195.16L122.25 195.16L122.54 197.23L120.77 198.71Q90.28 201.08 62.75 207.00L62.75 207.00Q62.75 216.47 60.09 220.32L60.09 220.32Q51.21 213.51 47.06 191.61L47.06 191.61Q43.81 173.85 41.74 168.82L41.74 168.82L34.93 152.24Q34.93 149.58 36.70 148.69L36.70 148.69Q38.48 148.69 49.43 151.35L49.43 151.35Q53.28 152.24 55.94 152.24L55.94 152.24Q76.37 151.95 100.94 141.88L100.94 141.88Q105.08 140.11 108.34 138.33L108.34 138.33Q115.14 138.33 125.50 146.62L125.50 146.62Q129.65 149.87 132.31 151.35L132.31 151.35Q132.90 152.83 132.90 154.02L132.90 154.02Q132.90 156.68 126.98 163.19L126.98 163.19Q125.80 164.67 125.21 165.56L125.21 165.56Q119.29 175.63 116.03 189.83ZM106.86 156.39L106.86 156.39Q104.19 151.65 96.50 152.24L96.50 152.24Q95.61 152.24 95.31 152.24L95.31 152.24L55.35 159.94Q55.65 165.56 60.09 190.13L60.09 190.13Q60.98 194.27 61.27 197.23L61.27 197.23L99.75 189.54L100.64 188.35L105.97 164.08Q106.56 159.94 106.86 156.39Z" stroke="#000" fill="black" /></svg>