<svg width="296" height="296" version="1.1" xmlns="http://www.w3.org/2000/svg" xmlns:xlink="http://www.w3.org/1999/xlink"><path d="M258.11 147.70L258.70 149.78Q258.11 153.03 255.45 153.92L255.45 153.92Q252.49 154.22 214.60 153.62L214.60 153.62Q124.02 153.62 71.04 163.98L71.04 163.98L33.15 171.68Q26.34 173.16 18.65 166.65L18.65 166.65Q14.50 163.39 13.62 159.84L13.62 159.84L15.39 158.36L94.72 151.26Q92.65 113.37 87.02 91.46L87.02 91.46Q85.25 84.95 77.26 69.86L77.26 69.86Q76.07 59.79 96.20 69.86L96.20 69.86Q134.98 45.29 141.19 34.34L141.19 34.34L143.86 25.75Q144.15 25.16 144.74 24.57L144.74 24.57Q160.43 25.16 171.09 31.08L171.09 31.08Q176.12 33.74 177.30 37L177.30 37Q177.60 38.18 177.60 39.37L177.60 39.37Q176.12 40.26 165.46 44.10L165.46 44.10Q163.10 44.99 161.32 45.88L161.32 45.88L102.12 74.89Q104.19 79.33 103.30 90.58L103.30 90.58Q129.06 89.10 169.02 77.85L169.02 77.85L189.14 71.63Q192.70 70.74 195.66 70.74L195.66 70.74Q204.54 70.74 209.86 76.66L209.86 76.66Q209.86 79.92 208.09 80.81L208.09 80.81Q207.79 81.10 172.86 89.98L172.86 89.98L162.50 92.94Q170.50 99.16 171.68 103.90L171.68 103.90L162.50 142.67Q169.31 143.26 226.14 133.79L226.14 133.79Q229.70 133.20 231.77 132.90L231.77 132.90Q238.28 132.02 253.08 143.26L253.08 143.26Q256.34 145.93 258.11 147.70L258.11 147.70ZM150.66 95.61L150.66 95.61Q123.43 101.23 112.78 100.34L112.78 100.34Q108.04 99.75 103.90 98.57L103.90 98.57L107.45 149.18L149.78 144.45L151.85 111.30Q151.85 102.71 150.66 95.61ZM212.53 271.43L212.53 271.43Q206.61 269.95 200.98 259.30L200.98 259.30Q198.02 253.97 198.02 250.42L198.02 250.42L198.62 233.54Q198.02 229.70 196.84 227.03L196.84 227.03Q161.32 227.03 115.14 238.87L115.14 238.87Q83.18 246.86 68.08 256.93L68.08 256.93Q61.27 256.93 54.46 248.34L54.46 248.34Q54.46 243.90 59.79 237.69L59.79 237.69Q61.86 235.32 62.75 233.54L62.75 233.54Q70.74 219.34 68.08 200.98L68.08 200.98Q67.49 195.06 65.42 190.62L65.42 190.62L66.01 186.78Q66.60 185.59 68.08 185.00L68.08 185.00Q77.26 187.37 83.47 195.66L83.47 195.66Q86.14 199.21 86.43 202.46L86.43 202.46Q86.43 203.65 82.29 221.41L82.29 221.41Q79.62 232.95 81.99 234.73L81.99 234.73Q84.36 234.43 102.42 229.99L102.42 229.99Q105.38 229.40 107.74 228.81L107.74 228.81L129.94 225.26Q130.83 202.46 128.46 188.85L128.46 188.85Q127.28 181.15 124.02 169.90L124.02 169.90Q123.14 166.65 124.32 165.17L124.32 165.17Q124.91 164.58 126.10 164.28L126.10 164.28Q139.12 164.58 148.89 174.05L148.89 174.05Q148.89 176.71 147.11 181.74L147.11 181.74Q144.45 190.92 141.78 218.74L141.78 218.74Q141.49 221.11 141.49 222.89L141.49 222.89L194.47 216.08Q192.99 198.91 186.18 187.66L186.18 187.66L182.04 182.04L181.74 181.74Q180.86 180.26 181.45 178.19L181.45 178.19Q181.74 177.90 181.74 177.30L181.74 177.30Q186.48 172.57 200.69 178.49L200.69 178.49Q208.09 181.74 209.86 184.70L209.86 184.70Q208.38 201.58 214.90 237.10L214.90 237.10Q216.67 245.38 217.26 250.42L217.26 250.42Q217.86 254.26 217.86 256.34L217.86 256.34Q217.86 265.51 212.53 271.43Z" stroke="#000" fill="black" /></svg>