<svg width="296" height="296" version="1.1" xmlns="http://www.w3.org/2000/svg" xmlns:xlink="http://www.w3.org/1999/xlink"><path d="M235.02 80.29L235.02 80.29Q235.02 82.36 228.81 85.32L228.81 85.32Q218.15 87.98 200.39 100.12L200.39 100.12L197.43 100.41L205.42 77.92Q206.02 76.44 201.58 73.77L201.58 73.77Q179.08 73.77 135.27 83.54L135.27 83.54Q140.90 85.91 142.97 89.17L142.97 89.17L141.78 101.60L141.78 101.89Q144.15 101.60 158.66 97.75L158.66 97.75Q171.98 94.49 179.08 101.01L179.08 101.01Q179.08 104.85 150.37 109.89L150.37 109.89L141.19 111.66Q141.19 120.84 146.22 123.80L146.22 123.80Q150.37 125.87 161.91 125.28L161.91 125.28Q166.65 124.98 169.02 124.39L169.02 124.39Q175.82 122.32 184.41 107.52L184.41 107.52Q185 106.04 185.59 105.15L185.59 105.15L186.78 105.45Q188.85 116.99 192.70 122.61L192.70 122.61Q192.70 130.61 176.12 134.75L176.12 134.75Q156.29 140.08 142.38 133.86L142.38 133.86Q137.64 131.79 135.27 128.24L135.27 128.24Q132.61 123.80 132.02 114.33L132.02 114.33L114.55 117.88Q108.63 118.17 104.78 116.10L104.78 116.10L101.23 113.44L101.23 113.14L103.01 111.07L131.13 106.33Q131.42 106.04 131.72 106.04L131.72 106.04Q131.72 93.61 129.06 84.43L129.06 84.43Q125.80 84.73 108.34 90.05L108.34 90.05Q99.75 92.72 93.54 92.72L93.54 92.72Q91.76 100.41 89.69 126.46L89.69 126.46Q89.39 132.38 88.80 136.82L88.80 136.82Q82.88 177.97 76.96 194.54L76.96 194.54Q68.38 219.11 50.02 235.98L50.02 235.98Q34.63 250.49 25.46 253.45L25.46 253.45Q20.72 255.22 15.69 255.22L15.69 255.22L15.39 254.33L16.28 252.85Q19.83 248.71 38.78 228.29L38.78 228.29Q56.83 208.75 64.23 188.33L64.23 188.33Q72.22 165.83 74.59 129.13L74.59 129.13Q76.96 92.42 68.08 80.29L68.08 80.29Q68.08 77.03 69.86 76.44L69.86 76.44Q74.89 76.44 87.62 82.36L87.62 82.36Q89.39 82.95 90.58 83.54L90.58 83.54L137.05 75.85Q138.53 75.55 139.71 75.55L139.71 75.55L140.60 74.66L137.94 45.65Q136.16 34.70 131.72 26.71L131.72 26.71Q131.72 24.05 134.38 22.57L134.38 22.57Q148.89 23.16 156.88 31.45L156.88 31.45L155.40 39.44L183.82 33.22Q196.54 31.45 199.50 36.48L199.50 36.48Q199.50 44.17 169.61 46.25L169.61 46.25Q158.66 47.13 154.51 46.54L154.51 46.54Q151.55 61.05 151.55 72.29L151.55 72.29Q154.51 72.00 187.96 66.97L187.96 66.97Q203.35 64.60 214.01 64.89L214.01 64.89Q227.33 71.70 235.02 80.29ZM191.81 196.32L191.81 196.32Q187.37 199.28 187.07 199.57L187.07 199.57Q182.63 198.39 178.49 192.17L178.49 192.17L126.10 196.91L124.62 203.72L124.62 204.01Q119.88 203.72 116.62 197.21L116.62 197.21Q116.03 195.73 113.07 185.37L113.07 185.37Q106.86 164.94 99.46 151.92L99.46 151.92Q99.46 149.85 100.34 149.25L100.34 149.25Q110.41 149.25 114.26 151.62L114.26 151.62Q121.06 149.85 162.50 142.15L162.50 142.15L164.87 141.56L188.55 136.53L188.85 136.53Q194.47 135.93 204.54 142.45L204.54 142.45Q211.94 147.48 211.94 151.03L211.94 151.03Q211.94 152.21 206.61 157.84L206.61 157.84Q205.72 158.73 205.42 159.32L205.42 159.32Q202.76 164.05 196.84 183.59L196.84 183.59Q194.47 191.29 191.81 196.32ZM189.74 151.92L189.74 151.92L188.26 148.66Q179.67 145.41 163.69 149.25L163.69 149.25Q158.06 150.44 154.81 151.03L154.81 151.03L161.02 156.36L160.43 163.76L160.43 164.05Q174.94 160.80 176.71 166.42L176.71 166.42L177.01 167.90Q174.64 169.38 163.69 171.75L163.69 171.75Q161.32 172.34 159.54 172.93L159.54 172.93L158.66 184.77L176.12 183.89Q177.90 184.18 179.38 184.48L179.38 184.48Q184.41 176.78 188.85 156.06L188.85 156.06Q189.44 153.69 189.74 151.92ZM125.80 190.69L147.11 187.14L146.82 175.30L146.82 175.01L131.72 176.49L129.35 173.23L129.35 172.93Q132.31 171.16 146.22 167.90L146.22 167.90L144.74 154.88Q144.45 153.69 144.15 152.81L144.15 152.81Q124.32 156.95 118.70 158.73L118.70 158.73L124.91 188.33Q125.21 189.51 125.80 190.69L125.80 190.69ZM65.42 257.59L65.42 257.59L65.71 255.81Q81.70 254.04 104.78 253.45L104.78 253.45Q102.12 238.94 91.76 217.04L91.76 217.04Q91.76 214.97 92.65 214.37L92.65 214.37L108.93 216.15L109.22 216.15Q111 216.15 113.96 215.56L113.96 215.56L179.08 206.38Q188.26 204.90 196.25 202.83L196.25 202.83Q209.57 206.97 218.45 215.56L218.45 215.56Q218.45 219.70 214.01 225.33L214.01 225.33Q212.23 227.40 211.34 229.17L211.34 229.17Q208.98 233.02 204.24 245.16L204.24 245.16L232.06 242.20L232.36 242.20Q245.09 242.20 253.67 251.67L253.67 251.67Q259.59 257.89 255.15 259.66L255.15 259.66Q254.26 259.96 252.78 259.96L252.78 259.96Q178.78 257.00 154.51 257.89L154.51 257.89Q134.09 258.77 115.74 261.14L115.74 261.14L85.84 266.77L83.77 266.77Q76.66 267.36 70.45 262.92L70.45 262.92Q67.78 260.55 65.42 257.59ZM193.58 213.78L193.58 213.78Q187.66 211.71 173.46 214.08L173.46 214.08Q170.20 214.67 167.83 214.67L167.83 214.67Q172.86 216.15 174.94 221.18L174.94 221.18Q173.16 224.14 163.69 246.64L163.69 246.64Q163.10 247.82 162.80 249.30L162.80 249.30L186.78 246.93L192.99 224.73Q194.47 217.63 193.58 213.78ZM158.06 216.74L158.06 216.74L134.09 220.29Q140.01 241.61 140.60 247.53L140.60 247.53Q140.60 249.60 140.60 251.08L140.60 251.08Q142.08 250.78 151.85 250.19L151.85 250.19Q153.92 249.89 155.70 249.60L155.70 249.60Q161.32 225.03 158.06 216.74ZM115.14 252.56L133.50 251.67Q130.24 246.93 128.46 232.13L128.46 232.13Q127.87 225.62 126.69 222.07L126.69 222.07Q114.55 223.85 110.41 225.33L110.41 225.33L115.14 252.56Z" stroke="#000" fill="black" /></svg>