<svg width="184" height="184" version="1.1" xmlns="http://www.w3.org/2000/svg" xmlns:xlink="http://www.w3.org/1999/xlink"><path d="M156.03 78.57L156.03 78.57Q156.03 80.04 154.56 80.96L154.56 80.96L126.41 80.96Q119.42 81.33 114.63 82.43L114.63 82.43Q116.84 84.09 117.21 86.48L117.21 86.48Q117.21 87.40 108.93 98.44L108.93 98.44L107.82 99.73Q116.84 99.54 119.05 100.28L119.05 100.28Q121.62 101.02 123.65 103.22L123.65 103.22Q123.65 103.96 121.81 105.43L121.81 105.43L99.36 108.19L98.81 108.74L103.59 111.69Q104.33 112.24 104.51 113.16L104.51 113.16Q104.51 115.55 103.04 121.81L103.04 121.81Q106.35 121.81 120.34 118.86L120.34 118.86Q135.06 115.92 142.05 120.89L142.05 120.89Q143.89 121.99 145.36 123.83L145.36 123.83L145.54 125.86L144.07 126.96L112.24 127.88L102.67 128.80L101.75 157.32Q101.02 165.05 98.81 170.57L98.81 170.57Q97.89 171.49 96.78 171.49L96.78 171.49Q93.29 166.70 93.29 138.55L93.29 138.55Q93.29 131.93 93.10 129.54L93.10 129.54Q83.17 130.09 70.29 132.85L70.29 132.85Q63.11 134.50 60.90 134.69L60.90 134.69Q57.59 134.87 54.65 132.85L54.65 132.85Q52.62 131.38 52.07 129.17L52.07 129.17Q53.18 128.43 84.82 124.57L84.82 124.57Q90.90 123.83 92.92 123.46L92.92 123.46Q92.92 120.52 90.34 110.03L90.34 110.03L77.10 111.50Q73.97 111.50 71.76 110.40L71.76 110.40L69.55 108.56L68.82 107.46L69.92 106.54Q100.10 101.94 101.57 101.75L101.57 101.75Q105.43 94.02 107.64 83.17L107.64 83.17L107.09 82.62Q90.71 83.90 78.75 86.66L78.75 86.66Q86.48 91.45 86.66 96.05L86.66 96.05Q86.66 99.54 84.64 100.28L84.64 100.28Q80.22 100.28 75.26 88.32L75.26 88.32Q74.89 87.58 74.70 87.22L74.70 87.22Q72.86 87.22 62.74 89.61L62.74 89.61Q52.07 92 47.29 86.30L47.29 86.30Q47.29 84.82 48.21 84.64L48.21 84.64L92.92 79.49L93.47 78.94L92.92 68.26L80.78 68.82L76.36 67.90L73.60 66.42Q73.05 65.87 72.50 65.14L72.50 65.14L74.52 64.03Q80.78 63.48 92.92 62.01L92.92 62.01L91.45 52.07Q91.26 51.34 90.90 50.78L90.90 50.78Q87.40 50.78 75.62 53.18L75.62 53.18L75.26 55.20Q71.76 55.20 69.74 51.15L69.74 51.15L66.98 43.61Q62.38 32.57 58.33 26.13L58.33 26.13Q58.33 23.37 67.34 24.47L67.34 24.47Q70.10 24.84 71.02 24.66L71.02 24.66Q103.96 19.87 119.05 18.03L119.05 18.03L129.54 16.19L130.46 16.19Q135.98 16.19 145.54 26.31L145.54 26.31Q145.54 28.52 141.13 31.83L141.13 31.83Q139.66 32.94 139.10 33.67L139.10 33.67Q138 34.96 132.85 43.79L132.85 43.79L129.35 48.94L128.06 50.23L124.20 51.34Q123.46 50.78 121.99 47.47L121.99 47.47Q110.77 48.02 97.70 50.05L97.70 50.05Q101.57 52.44 101.57 59.43L101.57 59.43L113.90 57.22Q119.23 57.04 121.99 59.98L121.99 59.98L121.44 62.01L101.38 66.24L100.28 78.02Q107.82 78.38 125.67 74.15L125.67 74.15Q136.16 71.58 142.05 71.21L142.05 71.21Q147.02 70.84 152.17 74.70L152.17 74.70Q154.38 76.36 156.03 78.57ZM130.27 23.92L130.27 23.92Q126.78 21.71 115.74 23.18L115.74 23.18Q112.98 23.55 111.50 23.55L111.50 23.55L114.08 26.13L106.72 43.06L117.39 41.58Q120.89 41.58 122.91 44.16L122.91 44.16L128.80 29.99Q129.90 26.86 130.27 23.92ZM104.51 24.47L104.51 24.47L88.50 26.50Q92.92 35.70 92.92 45.63L92.92 45.63L101.20 44.34L101.38 44.34Q104.51 36.06 104.51 24.47ZM75.62 48.21L88.87 46.37Q85.93 42.87 85.19 33.30L85.19 33.30Q84.82 29.07 84.27 27.05L84.27 27.05Q78.20 28.15 71.02 30.18L71.02 30.18L75.62 48.21ZM49.31 42.50L49.31 42.50Q48.39 44.34 43.79 44.34L43.79 44.34Q39.19 41.22 31.28 33.12L31.28 33.12Q26.68 28.34 27.05 27.05L27.05 27.05Q27.05 26.50 27.23 25.76L27.23 25.76Q32.38 24.84 41.03 28.52L41.03 28.52Q47.10 31.10 48.39 33.86L48.39 33.86Q49.31 35.70 49.31 42.50ZM36.80 75.44L36.80 75.44Q35.88 77.28 34.78 78.02L34.78 78.02Q29.44 78.02 21.16 69.92L21.16 69.92Q14.35 63.48 14.17 59.43L14.17 59.43Q19.14 57.59 29.62 63.30L29.62 63.30L32.57 65.14Q36.80 67.90 36.80 75.44ZM40.66 90.90L40.66 90.90L29.26 133.40Q27.05 142.23 26.31 149.96L26.31 149.96Q24.29 151.25 20.79 148.49L20.79 148.49Q20.61 148.30 20.06 147.94L20.06 147.94Q15.09 143.70 13.62 134.50L13.62 134.50Q13.43 133.22 13.25 132.11L13.25 132.11L19.87 125.49L37.90 91.82Q38.82 89.98 39.93 90.16L39.93 90.16Q40.30 90.16 40.66 90.90Z" stroke="#000" fill="black" /></svg>