<svg width="184" height="184" version="1.1" xmlns="http://www.w3.org/2000/svg" xmlns:xlink="http://www.w3.org/1999/xlink"><path d="M141.68 44.84L141.68 44.84L138.37 44.66Q129.35 37.67 123.10 31.04L123.10 31.04Q123.10 28.28 124.20 27.92L124.20 27.92L135.42 30.49Q142.05 32.70 143.34 38.22L143.34 38.22Q143.52 39.69 143.52 41.16L143.52 41.16Q143.52 43.74 141.68 44.84ZM156.77 108.32L158.06 109.61L156.77 110.72Q138.92 111.45 136.53 111.45L136.53 111.45Q133.58 111.27 130.82 110.72L130.82 110.72Q122.36 103.36 108.93 82.38L108.93 82.38Q105.98 77.60 104.70 75.57L104.70 75.57Q99.36 94.34 85.56 103.91L85.56 103.91Q79.49 108.32 72.68 109.61L72.68 109.61Q69 110.35 66.24 109.98L66.24 109.98Q65.32 109.98 64.58 109.61L64.58 109.61Q81.70 101.52 92 85.14L92 85.14Q97.34 76.49 98.99 67.48L98.99 67.48Q90.53 68.21 89.06 68.03L89.06 68.03L85.74 66.92Q84.09 66.00 82.80 64.35L82.80 64.35L83.90 63.24Q85.74 62.88 100.10 60.48L100.10 60.48Q102.86 37.30 101.75 27.55L101.75 27.55Q100.83 18.90 97.52 12.46L97.52 12.46Q97.52 6.94 108.93 12.09L108.93 12.09Q114.08 14.48 115.37 15.96L115.37 15.96Q116.10 17.06 116.10 18.53Q116.10 20.00 113.90 26.08L113.90 26.08L113.34 27.92Q109.85 43.92 108.38 58.28L108.38 58.28Q110.40 58.09 120.70 55.33L120.70 55.33Q131.19 52.39 136.53 57.72L136.53 57.72Q136.53 59.56 135.06 60.12L135.06 60.12Q134.14 60.48 126.22 61.40L126.22 61.40L125.12 61.59L107.46 65.27Q106.54 66.56 105.43 70.60L105.43 70.60Q130.46 98.02 156.77 108.32L156.77 108.32ZM148.30 150.28L148.30 150.28Q145.36 150.28 142.42 146.78L142.42 146.78L124.57 123.78L124.38 123.60Q123.46 120.10 124.75 119.36L124.75 119.36L139.84 126.72Q151.62 133.53 151.25 144.02L151.25 144.02Q151.25 148.99 148.30 150.28ZM85.93 46.87L85.93 46.87Q85.74 48.34 83.35 51.28L83.35 51.28L82.43 52.39Q81.51 53.86 75.26 66.19L75.26 66.19Q75.07 66.74 74.70 67.29L74.70 67.29Q56.12 102.44 37.17 110.72L37.17 110.72Q36.06 111.27 35.14 111.64L35.14 111.64Q32.02 112.74 29.07 112.74L29.07 112.74L29.07 112.19Q64.77 82.20 70.84 52.94L70.84 52.94Q71.02 51.28 71.39 49.63L71.39 49.63Q69.74 47.97 57.78 50.36L57.78 50.36Q50.42 51.84 48.21 51.47L48.21 51.47L38.09 63.06Q33.49 67.66 28.70 70.05L28.70 70.05L27.05 70.05L27.78 68.03Q41.22 51.65 48.94 35.83L48.94 35.83Q55.38 22.21 52.26 16.51L52.26 16.51Q51.70 11.72 57.41 14.85L57.41 14.85Q63.48 17.98 66.79 22.40L66.79 22.40L67.16 23.13Q67.16 25.16 63.66 29.02L63.66 29.02Q62.74 29.76 62.38 30.49L62.38 30.49L50.78 48.34Q60.90 47.79 73.97 41.53L73.97 41.53Q81.88 42.27 85.93 46.87ZM59.80 65.64L60.17 66.56Q60.35 78.33 50.42 65.64L50.42 65.64Q49.13 63.80 47.66 61.77L47.66 61.77Q47.66 59.75 48.58 59.20L48.58 59.20Q57.41 61.59 59.80 65.64L59.80 65.64ZM107.64 139.42L107.64 139.42Q104.51 142.73 100.65 137.76L100.65 137.76L99.54 135.92L91.63 121.39L92.74 118.44Q108.19 123.60 108.93 132.80L108.93 132.80Q109.30 136.11 107.64 139.42ZM48.76 79.62L48.76 79.62Q50.42 84.96 48.21 87.35L48.21 87.35Q45.45 88.27 42.69 84.59L42.69 84.59Q41.40 82.93 40.66 82.38L40.66 82.38L36.06 76.31Q35.14 74.47 36.06 73.18L36.06 73.18Q43.61 74.10 48.76 79.62ZM66.06 141.44L66.06 141.44Q58.14 130.40 58.14 118.44L58.14 118.44L58.88 117.89L60.72 118.44Q66.98 123.60 69.55 128.20L69.55 128.20Q74.52 137.40 70.10 140.52L70.10 140.52Q68.63 141.44 66.06 141.44ZM31.28 122.49L33.86 121.02Q38.09 122.86 35.14 133.53L35.14 133.53Q31.65 145.49 24.29 151.01L24.29 151.01Q23 152.12 21.53 152.67L21.53 152.67Q19.69 152.85 18.58 152.12L18.58 152.12Q17.66 151.75 17.11 150.64L17.11 150.64Q13.62 144.57 21.71 135.00L21.71 135.00L29.26 125.99Q30.73 123.96 31.28 122.49L31.28 122.49Z" stroke="#000" fill="black" /></svg>