<svg width="184" height="184" version="1.1" xmlns="http://www.w3.org/2000/svg" xmlns:xlink="http://www.w3.org/1999/xlink"><path d="M130.46 42.14L130.46 42.14L128.80 43.79L103.41 46.37Q102.49 48.39 99.73 60.35L99.73 60.35Q103.59 63.48 103.78 63.48L103.78 63.48Q104.51 64.58 104.70 65.69L104.70 65.69L103.78 66.42Q100.46 66.61 80.78 69L80.78 69Q76.73 69.55 73.42 69.92L73.42 69.92L71.76 73.78Q71.39 74.15 71.02 74.34L71.02 74.34Q68.45 71.02 66.79 61.09L66.79 61.09Q66.24 58.33 65.69 56.67L65.69 56.67Q64.40 52.07 64.22 51.70L64.22 51.70L63.30 51.15Q60.35 50.97 51.89 53.36L51.89 53.36Q44.53 55.38 40.30 51.34L40.30 51.34Q39.01 50.23 37.72 48.39L37.72 48.39L38.82 47.47L63.11 45.82Q61.64 36.98 56.12 30.73L56.12 30.73Q56.12 29.44 58.51 28.34L58.51 28.34Q59.25 28.15 59.43 27.97L59.43 27.97Q64.95 27.97 70.84 31.46L70.84 31.46L71.39 32.94L71.39 44.53Q77.83 44.16 95.31 40.85L95.31 40.85L96.78 27.60Q96.78 22.45 94.58 19.50L94.58 19.50Q94.58 17.66 96.78 16.93L96.78 16.93Q103.96 17.85 108.01 22.45L108.01 22.45Q109.48 24.29 109.85 26.31L109.85 26.31Q106.54 32.20 105.06 38.64L105.06 38.64L120.15 37.17Q129.17 37.17 130.46 42.14ZM92.55 60.35L94.58 47.47Q91.08 47.66 72.13 50.42L72.13 50.42L73.60 64.95Q89.61 61.27 92.55 60.35L92.55 60.35ZM160.82 79.49L160.82 79.49Q160.82 82.25 158.24 83.35L158.24 83.35L105.98 83.72L82.98 85.01L88.69 89.61L88.87 95.31L110.77 92.74Q121.44 92.55 130.82 101.75L130.82 101.75Q130.82 104.51 126.96 108.19L126.96 108.19Q124.75 110.22 124.02 111.32L124.02 111.32Q121.44 115 118.13 126.78L118.13 126.78Q115.37 137.08 110.77 141.50L110.77 141.50Q107.82 141.68 106.72 138.74L106.72 138.74Q106.35 138 106.17 137.08L106.17 137.08Q103.78 137.26 72.50 140.58L72.50 140.58Q66.61 141.13 61.82 141.50L61.82 141.50L60.90 143.70Q57.22 143.70 54.28 137.63L54.28 137.63Q53.91 136.90 53.73 136.16L53.73 136.16L52.07 128.06Q49.13 112.61 42.69 101.57L42.69 101.57Q42.69 99.73 43.61 99.36L43.61 99.36Q50.78 99.73 53.73 101.20L53.73 101.20L79.49 96.97Q79.49 90.34 76.73 85.56L76.73 85.56Q56.30 87.77 38.27 91.08L38.27 91.08L21.90 94.58Q21.16 94.76 20.42 94.76L20.42 94.76Q16.01 95.13 11.96 92.18L11.96 92.18Q9.57 90.53 8.46 88.14L8.46 88.14L9.57 87.03Q89.61 78.57 107.82 75.99L107.82 75.99Q111.32 75.62 114.63 75.07L114.63 75.07L141.31 70.66Q147.75 69.74 155.85 75.07L155.85 75.07Q158.79 77.28 160.82 79.49ZM88.69 101.75L88.69 101.75L88.50 112.24Q98.81 109.85 103.04 112.42L103.04 112.42Q104.33 113.16 105.25 114.45L105.25 114.45Q105.25 116.29 104.70 116.66L104.70 116.66Q103.78 117.39 89.42 119.05L89.42 119.05Q88.32 119.23 87.77 119.23L87.77 119.23L87.58 133.03L99.91 131.01Q103.78 130.82 107.09 131.93L107.09 131.93Q113.34 111.14 112.98 103.04L112.98 103.04Q112.61 98.44 92.37 101.38L92.37 101.38Q89.61 101.75 88.69 101.75ZM79.86 134.50L79.86 134.50L79.86 120.34L70.47 121.44Q66.79 121.26 65.50 118.13L65.50 118.13Q67.34 117.39 78.02 114.82L78.02 114.82L79.49 114.45L79.49 103.04Q62.01 105.43 55.75 107.27L55.75 107.27Q57.41 113.71 62.01 137.08L62.01 137.08Q69.37 135.42 79.86 134.50ZM99.91 150.33L99.91 150.33Q98.81 148.49 98.81 146.28L98.81 146.28L99.36 145.73Q121.99 152.35 127.88 158.98L127.88 158.98Q131.74 163.39 131.74 170.20L131.74 170.20Q131.74 175.35 128.62 174.98L128.62 174.98Q127.51 174.80 126.04 173.70L126.04 173.70Q124.75 172.96 119.42 167.62L119.42 167.62L118.50 166.52Q109.48 157.69 99.91 150.33ZM74.70 151.43L74.70 151.43Q74.70 154.38 71.39 156.40L71.39 156.40L54.46 167.62Q41.03 175.54 29.81 175.54L29.81 175.54Q27.23 175.54 25.76 175.35L25.76 175.35L46.37 162.84Q57.22 155.48 60.35 149.96L60.35 149.96L62.38 146.10Q62.93 145.54 63.66 145.18L63.66 145.18Q70.47 145.91 74.70 151.43Z" stroke="#000" fill="black" /></svg>