<?xml version="1.0" encoding="UTF-8" standalone="no"?>
        <svg 
    viewBox="3.4423828125 -86.24129385318396 447.4365234375 57.62985517393868"
    width="443.994140625"
    height="143.87114902712264"
   xmlns="http://www.w3.org/2000/svg"
   xmlns:svg="http://www.w3.org/2000/svg">
   <path d="M81.01-12.30L81.45-13.92Q101.37-13.62 113.67-11.39Q125.98-9.16 132.24-5.90Q138.50-2.64 139.97 0.88Q141.43 4.39 139.53 7.43Q137.62 10.47 133.67 12.19Q129.71 13.92 125.02 13.62Q120.34 13.33 116.38 10.03L116.38 10.03Q111.91 5.20 103.09-1.14Q94.26-7.47 81.01-12.30L81.01-12.30ZM50.10-19.04L50.10-19.04L74.56-3.44Q73.39-2.12 71.04-1.57Q68.70-1.03 64.67-1.83L64.67-1.83Q57.50 1.98 47.64 5.13Q37.79 8.28 26.51 10.58Q15.23 12.89 3.88 14.14L3.88 14.14L3.44 12.60Q12.45 8.79 21.46 3.33Q30.47-2.12 38.01-7.98Q45.56-13.84 50.10-19.04ZM104.37-46.07L104.37-61.38L85.18-61.38L85.18-46.07L104.37-46.07ZM5.42-76.68L4.17-80.86L113.23-80.86L124.95-95.43Q124.95-95.43 127.11-93.86Q129.27-92.29 132.64-89.76Q136.01-87.23 139.67-84.41Q143.33-81.59 146.41-79.03L146.41-79.03Q145.75-76.68 142.02-76.68L142.02-76.68L85.18-76.68L85.18-65.55L102.91-65.55L112.50-76.03L132.42-61.08Q131.69-60.13 130.26-59.25Q128.83-58.37 126.42-57.93L126.42-57.93L126.42-19.04Q126.34-18.53 123.27-17.40Q120.19-16.26 115.94-15.34Q111.69-14.43 108.18-14.43L108.18-14.43L104.37-14.43L104.37-20.73L46.22-20.73L46.22-18.16Q46.22-17.14 43.40-15.56Q40.58-13.99 36.29-12.71Q32.01-11.43 27.61-11.43L27.61-11.43L24.46-11.43L24.46-74.27L47.39-65.55L63.87-65.55L63.87-76.68L5.42-76.68ZM46.22-41.82L46.22-24.90L63.87-24.90L63.87-41.82L46.22-41.82ZM46.22-61.38L46.22-46.07L63.87-46.07L63.87-61.38L46.22-61.38ZM85.18-24.90L104.37-24.90L104.37-41.82L85.18-41.82L85.18-24.90ZM83.72-110.23L83.72-128.25L110.82-125.98Q110.74-124.51 109.68-123.38Q108.62-122.24 105.47-121.80L105.47-121.80L105.47-110.23L111.18-110.23L121.95-123.78Q121.95-123.78 123.93-122.28Q125.90-120.78 129.02-118.43Q132.13-116.09 135.53-113.45Q138.94-110.82 141.72-108.47L141.72-108.47Q141.06-106.05 137.40-106.05L137.40-106.05L105.47-106.05L105.47-87.89Q105.47-87.30 102.69-86.35Q99.90-85.40 95.73-84.63Q91.55-83.86 87.30-83.86L87.30-83.86L83.72-83.86L83.72-91.19L64.82-91.19L64.82-87.16Q64.82-86.57 62.15-85.58Q59.47-84.59 55.37-83.86Q51.27-83.13 47.09-83.13L47.09-83.13L43.51-83.13L43.51-106.05L13.77-106.05L12.60-110.23L43.51-110.23L43.51-128.25L70.39-125.98Q70.09-124.51 69.03-123.38Q67.97-122.24 64.82-121.80L64.82-121.80L64.82-110.23L83.72-110.23ZM83.72-106.05L64.82-106.05L64.82-95.43L83.72-95.43L83.72-106.05ZM162.30-124.95L163.48-125.68Q174.61-125.10 181.05-122.28Q187.50-119.46 190.21-115.65Q192.92-111.84 192.59-108.11Q192.26-104.37 189.77-101.70Q187.28-99.02 183.33-98.55Q179.37-98.07 174.90-100.93L174.90-100.93Q173.29-107.37 169.67-113.85Q166.04-120.34 162.30-124.95L162.30-124.95ZM152.71-92.07L153.88-92.87Q164.36-91.33 170.14-88.11Q175.93-84.89 178.05-80.97Q180.18-77.05 179.44-73.46Q178.71-69.87 175.96-67.57Q173.22-65.26 169.34-65.19Q165.45-65.11 161.43-68.41L161.43-68.41Q161.06-74.71 158.50-81.15Q155.93-87.60 152.71-92.07L152.71-92.07ZM161.87-32.67L161.87-32.67Q163.55-32.67 164.39-33.07Q165.23-33.47 166.48-35.82L166.48-35.82Q167.43-37.50 168.27-39.11Q169.12-40.72 170.54-43.98Q171.97-47.24 174.65-53.72Q177.32-60.21 181.90-71.45Q186.47-82.69 193.65-100.34L193.65-100.34L195.92-99.76Q194.24-93.16 192.15-84.52Q190.06-75.88 188.05-67.16Q186.04-58.45 184.50-51.49Q182.96-44.53 182.37-41.38L182.37-41.38Q181.64-37.72 181.05-33.84Q180.47-29.96 180.62-27.03L180.62-27.03Q180.83-22.63 182.59-18.97Q184.35-15.31 185.96-10.77Q187.57-6.23 187.35 0.73L187.35 0.73Q187.13 6.81 183.25 10.55Q179.37 14.28 173.36 14.28L173.36 14.28Q170.58 14.28 167.83 12.52Q165.09 10.77 164.14 6.30L164.14 6.30Q165.60-1.68 165.93-8.94Q166.26-16.19 165.53-21.20Q164.79-26.22 163.04-27.47L163.04-27.47Q160.11-29.52 155.27-30.03L155.27-30.03L155.27-32.67Q155.27-32.67 156.56-32.67Q157.84-32.67 159.45-32.67Q161.06-32.67 161.87-32.67ZM198.63-82.32L198.63-119.53L198.63-127.22L218.99-119.53L267.48-119.53L276.42-129.57L293.41-116.97Q292.75-116.02 291.54-115.32Q290.33-114.62 287.84-114.18L287.84-114.18L287.84-88.33Q287.84-87.89 284.69-86.54Q281.54-85.18 275.68-84.74L275.68-84.74Q278.17-82.98 282.46-79.61Q286.74-76.25 290.26-73.17L290.26-73.17Q289.60-70.83 286.23-70.83L286.23-70.83L281.10-70.83Q281.98-70.09 284.91-67.90Q287.84-65.70 291.39-62.88Q294.95-60.06 297.88-57.57L297.88-57.57Q297.44-55.22 293.70-55.22L293.70-55.22L261.77-55.22L277.66-50.68Q276.64-47.61 272.09-47.83L272.09-47.83Q268.87-45.04 264.18-41.60Q259.50-38.16 254.88-35.23L254.88-35.23L270.26-35.23L279.27-46.66Q279.27-46.66 282.13-44.49Q284.99-42.33 288.90-39.26Q292.82-36.18 295.97-33.47L295.97-33.47Q295.53-31.05 291.87-31.05L291.87-31.05L252.32-31.05L252.32-15.75L265.80-15.75L275.54-27.91Q275.54-27.91 278.65-25.63Q281.76-23.36 285.97-20.10Q290.19-16.85 293.55-13.92L293.55-13.92Q292.90-11.57 289.38-11.57L289.38-11.57L252.32-11.57L252.32 10.03Q252.32 10.47 247.89 12.12Q243.46 13.77 235.47 13.77L235.47 13.77L231.74 13.77L231.74-11.57L197.83-11.57L196.66-15.75L231.74-15.75L231.74-31.05L193.95-31.05L192.77-35.23L220.68-35.23Q217.75-36.25 215.41-38.53L215.41-38.53Q215.99-42.92 215.08-47.42Q214.16-51.93 212.55-55.22L212.55-55.22L192.77-55.22L191.53-59.40L231.74-59.40L231.74-70.83L199.80-70.83L198.63-75L231.74-75L231.74-90.16L217.53-90.16L217.53-86.57Q217.53-85.62 213.39-83.97Q209.25-82.32 202.08-82.32L202.08-82.32L198.63-82.32ZM280.37-70.83L252.32-70.83L252.32-59.40L271.22-59.40L280.37-70.83ZM252.32-84.74L252.32-75L264.18-75L271.95-84.59L271.51-84.59L268.07-84.59L268.07-90.16L233.57-90.16L256.64-88.18Q256.42-86.94 255.62-86.06Q254.81-85.18 252.32-84.74L252.32-84.74ZM227.27-35.23L231.74-35.23L250.93-35.23Q252.17-39.55 253.27-45.08Q254.37-50.61 255.18-55.22L255.18-55.22L220.53-55.22Q227.34-53.10 230.46-50.13Q233.57-47.17 233.79-44.09Q234.01-41.02 232.14-38.60Q230.27-36.18 227.27-35.23L227.27-35.23ZM238.62-94.34L245.87-94.34L245.87-115.36L238.62-115.36L238.62-94.34ZM260.38-115.36L260.38-94.34L268.07-94.34L268.07-115.36L260.38-115.36ZM217.53-115.36L217.53-94.34L224.41-94.34L224.41-115.36L217.53-115.36ZM330.76-25.49L330.76-25.49L332.52-25.49Q335.74-15.23 334.75-7.40Q333.76 0.44 330.07 5.57Q326.37 10.69 321.61 12.89L321.61 12.89Q316.77 15.23 311.68 13.70Q306.59 12.16 305.13 7.18L305.13 7.18Q303.74 2.49 306.15-0.92Q308.57-4.32 312.60-6.15L312.60-6.15Q316.48-7.25 320.43-9.96Q324.39-12.67 327.25-16.66Q330.10-20.65 330.76-25.49ZM348.93-23.22L350.54-23.73Q359.18-18.60 363.46-13.18Q367.75-7.76 368.66-2.75Q369.58 2.27 368.04 6.12Q366.50 9.96 363.43 11.87Q360.35 13.77 356.62 13.04Q352.88 12.30 349.51 8.13L349.51 8.13Q350.98 0.15 350.61-8.06Q350.24-16.26 348.93-23.22L348.93-23.22ZM376.03-24.32L377.42-25.05Q388.40-21.53 394.59-16.74Q400.78-11.94 403.13-6.92Q405.47-1.90 404.81 2.38Q404.15 6.67 401.37 9.27Q398.58 11.87 394.63 11.83Q390.67 11.79 386.43 8.13L386.43 8.13Q385.84-0.22 382.69-8.83Q379.54-17.43 376.03-24.32L376.03-24.32ZM405.03-24.46L406.35-25.34Q419.60-22.63 427.66-18.05Q435.72-13.48 439.45-8.24Q443.19-3.00 443.48 1.79Q443.77 6.59 441.47 9.85Q439.16 13.11 435.06 13.77Q430.96 14.43 425.98 11.28L425.98 11.28Q424.00 5.13 420.48-1.28Q416.97-7.69 412.90-13.62Q408.84-19.56 405.03-24.46L405.03-24.46ZM388.92-124.07L388.92-124.07L414.18-121.80Q413.67-118.36 408.91-117.77L408.91-117.77Q408.69-109.57 408.44-102.03Q408.18-94.48 407.37-87.60L407.37-87.60L418.51-87.60L424.22-95.58Q420.92-96.02 417.63-98.73L417.63-98.73Q417.70-103.78 415.91-108.87Q414.11-113.96 411.62-117.48L411.62-117.48L412.79-118.21Q422.24-117.33 427.44-114.77Q432.64-112.21 434.47-108.98Q436.30-105.76 435.53-102.72Q434.77-99.68 432.28-97.78L432.28-97.78Q435.13-95.36 439.01-91.99Q442.90-88.62 445.97-85.77L445.97-85.77Q445.31-83.42 441.72-83.42L441.72-83.42L408.18-83.42Q411.18-71.63 417.11-64.49Q423.05-57.35 430.88-53.10Q438.72-48.85 447.44-45.78L447.44-45.78L447.44-44.09Q440.92-42.41 436.16-37.21Q431.40-32.01 428.98-23.73L428.98-23.73Q421.88-30.25 417.37-37.61Q412.87-44.97 410.27-55.19Q407.67-65.41 406.35-80.57L406.35-80.57Q404.81-71.34 401.18-63.32Q397.56-55.30 390.75-48.45Q383.94-41.60 373.02-35.89Q362.11-30.18 345.92-25.63L345.92-25.63L344.53-27.76Q360.06-35.01 368.99-43.47Q377.93-51.93 382.14-61.85Q386.35-71.78 387.74-83.42L387.74-83.42L374.41-83.42L373.97-85.18Q368.41-70.97 359.40-58.41Q350.39-45.85 336.95-35.85Q323.51-25.85 304.47-19.34L304.47-19.34L303.30-21.02Q314.65-27.83 323.58-36.88Q332.52-45.92 339.33-56.40L339.33-56.40Q337.06-54.71 333.87-54.60Q330.69-54.49 327.32-56.84L327.32-56.84Q326.73-61.16 324.65-65.55Q322.56-69.95 319.92-73.17L319.92-73.17Q312.89-66.80 304.83-62.11L304.83-62.11L303.15-63.28Q308.94-71.12 314.10-81.48Q319.26-91.85 323.14-103.89Q327.03-115.94 328.93-128.69L328.93-128.69L355.22-121.07Q354.20-117.70 349.22-117.92L349.22-117.92Q348.05-114.99 346.91-112.21Q345.78-109.42 344.53-106.79L344.53-106.79L356.40-106.79L366.72-117.33L384.59-101.73Q383.28-99.61 378.44-99.02L378.44-99.02Q376.98-93.46 374.85-87.60L374.85-87.60L388.18-87.60Q388.84-95.80 388.88-104.85Q388.92-113.89 388.92-124.07ZM357.42-102.61L357.42-102.61L342.48-102.61Q341.31-100.34 340.10-98.29Q338.89-96.24 337.65-94.19L337.65-94.19Q344.60-93.75 348.30-91.66Q352.00-89.58 353.25-87.01L353.25-87.01Q354.49-90.82 355.52-94.74Q356.54-98.66 357.42-102.61ZM349.51-76.46L349.51-76.46Q347.46-75.37 344.86-75.40Q342.26-75.44 339.33-77.12L339.33-77.12Q338.75-80.05 337.21-83.06Q335.67-86.06 333.91-88.62L333.91-88.62Q331.35-84.96 328.45-81.67Q325.56-78.37 322.49-75.44L322.49-75.44Q330.47-74.78 334.94-72.58Q339.40-70.39 341.16-67.53Q342.92-64.67 342.63-61.96L342.63-61.96Q344.53-65.41 346.22-69.03Q347.90-72.66 349.51-76.46Z"/>
    </svg>
        